<?xml version="1.0" standalone="no"?>
<!DOCTYPE svg PUBLIC "-//W3C//DTD SVG 20010904//EN"
 "http://www.w3.org/TR/2001/REC-SVG-20010904/DTD/svg10.dtd">
<svg version="1.0" xmlns="http://www.w3.org/2000/svg"
 width="401.000000pt" height="83.000000pt" viewBox="0 0 401.000000 83.000000"
 preserveAspectRatio="xMidYMid meet">

<g transform="translate(0.000000,83.000000) scale(0.100000,-0.100000)"
fill="#000000" stroke="none">
<path d="M1893 568 c-5 -7 -22 -71 -37 -143 -15 -72 -30 -138 -32 -148 -5 -16
-1 -18 28 -15 31 3 34 6 43 50 5 25 13 49 16 52 3 3 14 -19 24 -49 18 -52 21
-55 52 -55 38 0 38 -2 17 50 l-16 40 31 35 c17 20 31 40 31 45 0 6 7 10 16 10
13 0 15 -6 10 -32 -24 -119 -18 -148 34 -148 41 0 60 10 60 31 0 14 -7 19 -25
19 -29 0 -28 -3 -11 70 10 44 17 56 34 58 12 2 27 12 32 23 9 17 7 19 -16 19
-24 0 -26 3 -22 30 4 26 1 30 -18 30 -16 0 -29 -10 -39 -30 -9 -18 -23 -30
-35 -30 -11 0 -20 -5 -20 -12 0 -6 -8 -3 -20 7 -15 14 -29 16 -60 11 -37 -6
-41 -4 -36 11 2 10 7 33 11 51 6 29 4 32 -18 32 -13 0 -29 -6 -34 -12z m87
-143 c0 -18 -63 -49 -69 -34 -5 15 30 49 51 49 10 0 18 -7 18 -15z"/>
<path d="M2470 565 c-18 -22 -8 -50 19 -50 28 0 47 25 38 49 -8 20 -40 21 -57
1z"/>
<path d="M2580 558 c-5 -13 -21 -76 -35 -142 -29 -140 -25 -159 33 -154 30 2
38 8 40 26 2 15 -2 22 -12 22 -20 0 -20 0 9 136 14 64 25 120 25 125 0 5 -11
9 -25 9 -17 0 -29 -8 -35 -22z"/>
<path d="M1311 523 c-45 -44 -77 -133 -67 -188 9 -44 48 -75 95 -75 60 0 81
10 81 36 0 22 -3 24 -38 18 -43 -7 -72 12 -72 47 0 39 22 108 41 128 21 22 68
28 85 11 7 -7 16 -4 29 10 28 31 5 50 -61 50 -48 0 -57 -4 -93 -37z"/>
<path d="M1503 470 c-40 -24 -64 -69 -66 -125 -3 -59 22 -85 81 -85 37 0 50 6
77 33 37 37 59 102 49 142 -13 54 -82 71 -141 35z m75 -61 c2 -15 -4 -43 -12
-64 -12 -29 -20 -36 -38 -33 -20 3 -23 8 -21 45 2 56 19 85 46 81 15 -2 23
-11 25 -29z"/>
<path d="M1723 470 c-65 -39 -91 -153 -44 -191 38 -31 121 -24 121 11 0 14 -9
20 -37 22 -38 3 -38 3 -37 46 1 55 33 93 63 75 16 -10 22 -8 36 7 40 45 -40
68 -102 30z"/>
<path d="M2261 468 c-45 -30 -73 -79 -75 -128 -1 -68 57 -102 111 -65 20 14
23 14 31 0 6 -12 16 -14 34 -10 23 6 26 11 22 38 -3 18 1 63 10 102 8 38 14
71 12 72 -1 1 -27 5 -57 9 -46 5 -59 3 -88 -18z m73 -55 c-13 -57 -38 -98 -63
-101 -23 -4 -24 -2 -18 37 7 56 31 91 62 91 23 0 25 -3 19 -27z"/>
<path d="M2698 471 c-15 -12 -30 -31 -33 -42 -8 -24 17 -65 45 -74 28 -9 27
-45 -2 -45 -13 0 -30 4 -38 9 -10 7 -18 4 -29 -11 -13 -19 -12 -22 4 -34 34
-25 93 -17 126 15 41 41 39 76 -6 102 -47 28 -47 52 1 47 26 -2 40 2 47 14 15
23 6 29 -45 35 -34 4 -49 0 -70 -16z"/>
<path d="M2436 409 c-24 -105 -22 -137 9 -145 14 -3 32 -4 40 0 17 6 20 43 4
48 -8 3 -7 24 5 75 21 93 21 93 -13 93 -28 0 -30 -3 -45 -71z"/>
</g>
</svg>
